<svg width="1228" height="90" viewBox="0 0 1228 90" fill="none" xmlns="http://www.w3.org/2000/svg">
<g filter="url(#filter0_b_13_704)">
<rect width="1228" height="90" rx="20" fill="white" fill-opacity="0.7"/>
</g>
<path d="M24.9844 39V27.7266H32.1719V29.4297H27V32.7578H31.7266V34.3984H27V39H24.9844ZM37.0703 39.125C35.8099 39.125 34.8099 38.7318 34.0703 37.9453C33.3307 37.1589 32.9609 36.0859 32.9609 34.7266C32.9609 33.3828 33.3333 32.3151 34.0781 31.5234C34.8177 30.737 35.8151 30.3438 37.0703 30.3438C38.3307 30.3438 39.3307 30.737 40.0703 31.5234C40.8151 32.3099 41.1875 33.3776 41.1875 34.7266C41.1875 36.0859 40.8177 37.1589 40.0781 37.9453C39.3385 38.7318 38.3359 39.125 37.0703 39.125ZM37.0703 37.5703C37.7422 37.5703 38.2682 37.3203 38.6484 36.8203C39.0234 36.3255 39.2109 35.6302 39.2109 34.7344C39.2109 33.8438 39.0208 33.1484 38.6406 32.6484C38.2656 32.1484 37.7422 31.8984 37.0703 31.8984C36.4036 31.8984 35.8828 32.1484 35.5078 32.6484C35.1276 33.1484 34.9375 33.8438 34.9375 34.7344C34.9375 35.625 35.1276 36.3203 35.5078 36.8203C35.8828 37.3203 36.4036 37.5703 37.0703 37.5703ZM42.5547 27.2031H44.5V39H42.5547V27.2031ZM46.2891 27.2031H48.2344V39H46.2891V27.2031ZM53.7109 39.125C52.4505 39.125 51.4505 38.7318 50.7109 37.9453C49.9714 37.1589 49.6016 36.0859 49.6016 34.7266C49.6016 33.3828 49.974 32.3151 50.7188 31.5234C51.4583 30.737 52.4557 30.3438 53.7109 30.3438C54.9714 30.3438 55.9714 30.737 56.7109 31.5234C57.4557 32.3099 57.8281 33.3776 57.8281 34.7266C57.8281 36.0859 57.4583 37.1589 56.7188 37.9453C55.9792 38.7318 54.9766 39.125 53.7109 39.125ZM53.7109 37.5703C54.3828 37.5703 54.9089 37.3203 55.2891 36.8203C55.6641 36.3255 55.8516 35.6302 55.8516 34.7344C55.8516 33.8438 55.6615 33.1484 55.2812 32.6484C54.9062 32.1484 54.3828 31.8984 53.7109 31.8984C53.0443 31.8984 52.5234 32.1484 52.1484 32.6484C51.7682 33.1484 51.5781 33.8438 51.5781 34.7344C51.5781 35.625 51.7682 36.3203 52.1484 36.8203C52.5234 37.3203 53.0443 37.5703 53.7109 37.5703ZM68.2734 39H66.2344L64.5312 32.7266H64.4844L62.7891 39H60.7656L58.4453 30.4609H60.3906L61.8594 37.0547H61.8984L63.5938 30.4609H65.4609L67.1562 37.0547H67.1953L68.6719 30.4609H70.5938L68.2734 39ZM78.5156 39V34.5547L74.5625 27.7266H76.7734L79.5078 32.6328H79.5547L82.2812 27.7266H84.4766L80.5234 34.5547V39H78.5156ZM87.7422 39.125C86.4818 39.125 85.4818 38.7318 84.7422 37.9453C84.0026 37.1589 83.6328 36.0859 83.6328 34.7266C83.6328 33.3828 84.0052 32.3151 84.75 31.5234C85.4896 30.737 86.487 30.3438 87.7422 30.3438C89.0026 30.3438 90.0026 30.737 90.7422 31.5234C91.487 32.3099 91.8594 33.3776 91.8594 34.7266C91.8594 36.0859 91.4896 37.1589 90.75 37.9453C90.0104 38.7318 89.0078 39.125 87.7422 39.125ZM87.7422 37.5703C88.4141 37.5703 88.9401 37.3203 89.3203 36.8203C89.6953 36.3255 89.8828 35.6302 89.8828 34.7344C89.8828 33.8438 89.6927 33.1484 89.3125 32.6484C88.9375 32.1484 88.4141 31.8984 87.7422 31.8984C87.0755 31.8984 86.5547 32.1484 86.1797 32.6484C85.7995 33.1484 85.6094 33.8438 85.6094 34.7344C85.6094 35.625 85.7995 36.3203 86.1797 36.8203C86.5547 37.3203 87.0755 37.5703 87.7422 37.5703ZM100.836 39H98.9688V37.5078H98.9219C98.4427 38.5755 97.5365 39.1094 96.2031 39.1094C95.2656 39.1094 94.5208 38.8255 93.9688 38.2578C93.4062 37.6901 93.125 36.9167 93.125 35.9375V30.4609H95.0703V35.5469C95.0703 36.1615 95.2318 36.6354 95.5547 36.9688C95.8724 37.2969 96.3203 37.4609 96.8984 37.4609C97.4922 37.4609 97.974 37.2682 98.3438 36.8828C98.7083 36.4974 98.8906 35.9896 98.8906 35.3594V30.4609H100.836V39Z" fill="black"/>
<path d="M24.916 62V52.1357H25.8457V62H24.916ZM27.582 54.6377H28.4297V56.0117H28.457C28.6165 55.5697 28.8831 55.2188 29.2568 54.959C29.6396 54.6901 30.0885 54.5557 30.6035 54.5557C31.1276 54.5557 31.5811 54.6969 31.9639 54.9795C32.333 55.2529 32.5882 55.6266 32.7295 56.1006H32.75C32.9277 55.6357 33.2217 55.2643 33.6318 54.9863C34.0557 54.6992 34.5387 54.5557 35.0811 54.5557C35.8011 54.5557 36.3776 54.7767 36.8105 55.2188C37.2435 55.6654 37.46 56.2601 37.46 57.0029V62H36.5508V57.208C36.5508 56.6338 36.4004 56.1826 36.0996 55.8545C35.7943 55.5264 35.3727 55.3623 34.835 55.3623C34.2881 55.3623 33.8392 55.5537 33.4883 55.9365C33.1419 56.3148 32.9688 56.8024 32.9688 57.3994V62H32.0664V57.1191C32.0664 56.5951 31.9092 56.1712 31.5947 55.8477C31.2803 55.5241 30.8701 55.3623 30.3643 55.3623C29.8174 55.3623 29.3685 55.5628 29.0176 55.9639C28.6621 56.3649 28.4844 56.8799 28.4844 57.5088V62H27.582V54.6377ZM41.4043 61.2891C42.0651 61.2891 42.6165 61.0908 43.0586 60.6943C43.5052 60.3024 43.7285 59.8148 43.7285 59.2314V58.418L41.5752 58.5684C40.3128 58.6504 39.6816 59.113 39.6816 59.9561C39.6816 60.3525 39.8411 60.6738 40.1602 60.9199C40.4792 61.166 40.8939 61.2891 41.4043 61.2891ZM41.2266 62.082C40.4928 62.082 39.8981 61.8861 39.4424 61.4941C38.9867 61.0977 38.7588 60.5827 38.7588 59.9492C38.7588 58.6686 39.6611 57.9645 41.4658 57.8369L43.7285 57.6865V57.0576C43.7285 56.5199 43.5667 56.1029 43.2432 55.8066C42.915 55.5104 42.4548 55.3623 41.8623 55.3623C41.3473 55.3623 40.9212 55.4854 40.584 55.7314C40.2467 55.9821 40.0371 56.3262 39.9551 56.7637H39.0869C39.1234 56.1165 39.4036 55.5879 39.9277 55.1777C40.4473 54.763 41.0944 54.5557 41.8691 54.5557C42.7122 54.5557 43.3844 54.7744 43.8857 55.2119C44.3825 55.6494 44.6309 56.2396 44.6309 56.9824V62H43.7695V60.5918H43.749C43.5485 61.0384 43.2204 61.3984 42.7646 61.6719C42.3044 61.9453 41.7917 62.082 41.2266 62.082ZM49.1152 61.2207C49.8262 61.2207 50.4027 60.9495 50.8447 60.4072C51.2868 59.8695 51.5078 59.1676 51.5078 58.3018C51.5078 57.4313 51.2868 56.7227 50.8447 56.1758C50.4027 55.6335 49.8262 55.3623 49.1152 55.3623C48.4134 55.3623 47.846 55.6312 47.4131 56.1689C46.9847 56.7067 46.7705 57.4176 46.7705 58.3018C46.7705 59.1813 46.9847 59.8877 47.4131 60.4209C47.8415 60.9541 48.4089 61.2207 49.1152 61.2207ZM49.1768 64.5635C48.3656 64.5635 47.6911 64.3903 47.1533 64.0439C46.6156 63.6976 46.3011 63.2419 46.21 62.6768H47.1533C47.2445 63.0094 47.4746 63.2738 47.8438 63.4697C48.222 63.6702 48.6846 63.7705 49.2314 63.7705C49.9196 63.7705 50.471 63.6064 50.8857 63.2783C51.3005 62.9456 51.5078 62.4967 51.5078 61.9316V60.4346H51.4873C51.2777 60.9176 50.9518 61.3027 50.5098 61.5898C50.054 61.8861 49.5368 62.0342 48.958 62.0342C48.0329 62.0342 47.2832 61.6901 46.709 61.002C46.1348 60.3138 45.8477 59.4137 45.8477 58.3018C45.8477 57.1761 46.1348 56.2715 46.709 55.5879C47.2832 54.8997 48.0397 54.5557 48.9785 54.5557C49.5573 54.5557 50.0768 54.7038 50.5371 55C50.9837 55.2871 51.3164 55.6745 51.5352 56.1621H51.5488V54.6377H52.4102V61.8633C52.4102 62.7018 52.1185 63.3626 51.5352 63.8457C50.9518 64.3242 50.1657 64.5635 49.1768 64.5635ZM54.1055 54.6377H55.0078V62H54.1055V54.6377ZM54.5566 53.1816C54.388 53.1816 54.2445 53.1201 54.126 52.9971C54.0029 52.8786 53.9414 52.7373 53.9414 52.5732C53.9414 52.4046 54.0029 52.2588 54.126 52.1357C54.2445 52.0173 54.388 51.958 54.5566 51.958C54.7253 51.958 54.8688 52.0173 54.9873 52.1357C55.1058 52.2588 55.165 52.4046 55.165 52.5732C55.165 52.7373 55.1058 52.8786 54.9873 52.9971C54.8688 53.1201 54.7253 53.1816 54.5566 53.1816ZM56.7031 54.6377H57.5508V56.0117H57.5781C58.0111 55.041 58.8359 54.5557 60.0527 54.5557C60.8639 54.5557 61.5088 54.7972 61.9873 55.2803C62.4704 55.7679 62.7119 56.4287 62.7119 57.2627V62H61.8096V57.4062C61.8096 56.7591 61.6318 56.2555 61.2764 55.8955C60.9209 55.54 60.4287 55.3623 59.7998 55.3623C59.1436 55.3623 58.6149 55.5765 58.2139 56.0049C57.8083 56.4287 57.6055 56.9847 57.6055 57.6729V62H56.7031V54.6377ZM67.2031 55.3555C66.5423 55.3555 66 55.5811 65.5762 56.0322C65.1478 56.4788 64.9131 57.069 64.8721 57.8027H69.4521C69.443 57.069 69.2334 56.4788 68.8232 56.0322C68.4085 55.5811 67.8685 55.3555 67.2031 55.3555ZM70.2998 59.915C70.1904 60.5485 69.8577 61.0658 69.3018 61.4668C68.7412 61.877 68.0645 62.082 67.2715 62.082C66.2507 62.082 65.4395 61.7471 64.8379 61.0771C64.2363 60.4027 63.9355 59.4889 63.9355 58.3359C63.9355 57.1921 64.234 56.276 64.8311 55.5879C65.4326 54.8997 66.2279 54.5557 67.2168 54.5557C68.1829 54.5557 68.9554 54.8792 69.5342 55.5264C70.1084 56.1781 70.3955 57.0508 70.3955 58.1445V58.541H64.8721V58.5889C64.8721 59.4183 65.0931 60.0745 65.5352 60.5576C65.9727 61.0407 66.5583 61.2822 67.292 61.2822C67.8343 61.2822 68.2969 61.1546 68.6797 60.8994C69.0534 60.6533 69.2949 60.3252 69.4043 59.915H70.2998ZM78.1201 52.1357C79.5967 52.1357 80.7451 52.5664 81.5654 53.4277C82.3857 54.2936 82.7959 55.5059 82.7959 57.0645C82.7959 58.6276 82.3857 59.8398 81.5654 60.7012C80.7497 61.5671 79.6012 62 78.1201 62H74.873V52.1357H78.1201ZM75.8096 61.1523H78.0654C79.2777 61.1523 80.2119 60.7992 80.8682 60.0928C81.5199 59.3864 81.8457 58.3792 81.8457 57.0713C81.8457 55.7588 81.5199 54.7493 80.8682 54.043C80.2119 53.3366 79.2777 52.9834 78.0654 52.9834H75.8096V61.1523ZM84.1973 54.6377H85.0449V55.9434H85.0723C85.1999 55.5059 85.4277 55.1641 85.7559 54.918C86.084 54.6764 86.4782 54.5557 86.9385 54.5557C87.1344 54.5557 87.3167 54.5807 87.4854 54.6309V55.5332C87.3304 55.4603 87.1071 55.4238 86.8154 55.4238C86.2959 55.4238 85.8789 55.6107 85.5645 55.9844C85.2546 56.3535 85.0996 56.8366 85.0996 57.4336V62H84.1973V54.6377ZM90.7051 61.2891C91.3659 61.2891 91.9173 61.0908 92.3594 60.6943C92.806 60.3024 93.0293 59.8148 93.0293 59.2314V58.418L90.876 58.5684C89.6136 58.6504 88.9824 59.113 88.9824 59.9561C88.9824 60.3525 89.1419 60.6738 89.4609 60.9199C89.7799 61.166 90.1947 61.2891 90.7051 61.2891ZM90.5273 62.082C89.7936 62.082 89.1989 61.8861 88.7432 61.4941C88.2874 61.0977 88.0596 60.5827 88.0596 59.9492C88.0596 58.6686 88.9619 57.9645 90.7666 57.8369L93.0293 57.6865V57.0576C93.0293 56.5199 92.8675 56.1029 92.5439 55.8066C92.2158 55.5104 91.7555 55.3623 91.1631 55.3623C90.6481 55.3623 90.222 55.4854 89.8848 55.7314C89.5475 55.9821 89.3379 56.3262 89.2559 56.7637H88.3877C88.4242 56.1165 88.7044 55.5879 89.2285 55.1777C89.748 54.763 90.3952 54.5557 91.1699 54.5557C92.013 54.5557 92.6852 54.7744 93.1865 55.2119C93.6833 55.6494 93.9316 56.2396 93.9316 56.9824V62H93.0703V60.5918H93.0498C92.8493 61.0384 92.5212 61.3984 92.0654 61.6719C91.6051 61.9453 91.0924 62.082 90.5273 62.082ZM98.416 61.2207C99.127 61.2207 99.7035 60.9495 100.146 60.4072C100.588 59.8695 100.809 59.1676 100.809 58.3018C100.809 57.4313 100.588 56.7227 100.146 56.1758C99.7035 55.6335 99.127 55.3623 98.416 55.3623C97.7142 55.3623 97.1468 55.6312 96.7139 56.1689C96.2855 56.7067 96.0713 57.4176 96.0713 58.3018C96.0713 59.1813 96.2855 59.8877 96.7139 60.4209C97.1423 60.9541 97.7096 61.2207 98.416 61.2207ZM98.4775 64.5635C97.6663 64.5635 96.9919 64.3903 96.4541 64.0439C95.9163 63.6976 95.6019 63.2419 95.5107 62.6768H96.4541C96.5452 63.0094 96.7754 63.2738 97.1445 63.4697C97.5228 63.6702 97.9854 63.7705 98.5322 63.7705C99.2204 63.7705 99.7718 63.6064 100.187 63.2783C100.601 62.9456 100.809 62.4967 100.809 61.9316V60.4346H100.788C100.578 60.9176 100.253 61.3027 99.8105 61.5898C99.3548 61.8861 98.8376 62.0342 98.2588 62.0342C97.3337 62.0342 96.584 61.6901 96.0098 61.002C95.4355 60.3138 95.1484 59.4137 95.1484 58.3018C95.1484 57.1761 95.4355 56.2715 96.0098 55.5879C96.584 54.8997 97.3405 54.5557 98.2793 54.5557C98.8581 54.5557 99.3776 54.7038 99.8379 55C100.285 55.2871 100.617 55.6745 100.836 56.1621H100.85V54.6377H101.711V61.8633C101.711 62.7018 101.419 63.3626 100.836 63.8457C100.253 64.3242 99.4665 64.5635 98.4775 64.5635ZM106.312 62.082C105.3 62.082 104.491 61.7402 103.885 61.0566C103.274 60.3776 102.969 59.4639 102.969 58.3154C102.969 57.1715 103.274 56.2578 103.885 55.5742C104.491 54.8952 105.3 54.5557 106.312 54.5557C107.328 54.5557 108.139 54.8952 108.745 55.5742C109.356 56.2578 109.661 57.1715 109.661 58.3154C109.661 59.4593 109.356 60.373 108.745 61.0566C108.139 61.7402 107.328 62.082 106.312 62.082ZM106.312 61.2686C107.063 61.2686 107.656 61.0065 108.089 60.4824C108.522 59.9538 108.738 59.2314 108.738 58.3154C108.738 57.3994 108.522 56.6771 108.089 56.1484C107.656 55.6243 107.063 55.3623 106.312 55.3623C105.564 55.3623 104.974 55.6243 104.541 56.1484C104.108 56.6771 103.892 57.3994 103.892 58.3154C103.892 59.2314 104.108 59.9538 104.541 60.4824C104.974 61.0065 105.564 61.2686 106.312 61.2686ZM110.926 54.6377H111.773V56.0117H111.801C112.234 55.041 113.059 54.5557 114.275 54.5557C115.087 54.5557 115.731 54.7972 116.21 55.2803C116.693 55.7679 116.935 56.4287 116.935 57.2627V62H116.032V57.4062C116.032 56.7591 115.854 56.2555 115.499 55.8955C115.144 55.54 114.651 55.3623 114.022 55.3623C113.366 55.3623 112.838 55.5765 112.437 56.0049C112.031 56.4287 111.828 56.9847 111.828 57.6729V62H110.926V54.6377ZM118.377 56.6201C118.377 56.014 118.628 55.5173 119.129 55.1299C119.626 54.7471 120.257 54.5557 121.022 54.5557C121.765 54.5557 122.383 54.7562 122.875 55.1572C123.367 55.5583 123.632 56.0755 123.668 56.709H122.8C122.754 56.2897 122.572 55.9548 122.253 55.7041C121.929 55.4489 121.51 55.3213 120.995 55.3213C120.498 55.3213 120.088 55.4375 119.765 55.6699C119.437 55.9023 119.272 56.2031 119.272 56.5723C119.272 57.1328 119.73 57.527 120.646 57.7549L121.774 58.0283C122.513 58.2152 123.037 58.4544 123.347 58.7461C123.657 59.0423 123.812 59.4525 123.812 59.9766C123.812 60.5964 123.545 61.1022 123.012 61.4941C122.483 61.8861 121.804 62.082 120.975 62.082C120.191 62.082 119.537 61.8792 119.013 61.4736C118.493 61.0726 118.208 60.5576 118.158 59.9287H119.074C119.129 60.3525 119.329 60.6898 119.676 60.9404C120.027 61.1956 120.478 61.3232 121.029 61.3232C121.585 61.3232 122.034 61.207 122.376 60.9746C122.722 60.7376 122.896 60.4255 122.896 60.0381C122.896 59.7236 122.791 59.4753 122.581 59.293C122.371 59.1061 122.018 58.9512 121.521 58.8281L120.277 58.5137C119.01 58.1947 118.377 57.5635 118.377 56.6201Z" fill="black"/>
<path d="M931.245 48.1641C930.101 48.1641 929.208 47.7038 928.565 46.7832C927.927 45.8763 927.608 44.6367 927.608 43.0645C927.608 41.5059 927.927 40.2708 928.565 39.3594C929.217 38.4342 930.11 37.9717 931.245 37.9717C932.38 37.9717 933.271 38.432 933.918 39.3525C934.551 40.2594 934.868 41.4945 934.868 43.0576C934.868 44.6299 934.551 45.8695 933.918 46.7764C933.275 47.7015 932.384 48.1641 931.245 48.1641ZM931.245 47.0908C932.006 47.0908 932.596 46.7262 933.016 45.9971C933.426 45.2907 933.631 44.3132 933.631 43.0645C933.631 41.834 933.424 40.861 933.009 40.1455C932.585 39.4163 931.997 39.0518 931.245 39.0518C930.493 39.0518 929.903 39.4186 929.475 40.1523C929.055 40.8678 928.846 41.8363 928.846 43.0576C928.846 44.3063 929.053 45.2861 929.468 45.9971C929.892 46.7262 930.484 47.0908 931.245 47.0908ZM937.336 46.5918C937.099 46.5918 936.898 46.5075 936.734 46.3389C936.566 46.1748 936.481 45.9743 936.481 45.7373C936.481 45.5049 936.566 45.3066 936.734 45.1426C936.903 44.974 937.104 44.8896 937.336 44.8896C937.573 44.8896 937.773 44.974 937.938 45.1426C938.106 45.3066 938.19 45.5049 938.19 45.7373C938.19 45.9743 938.106 46.1748 937.938 46.3389C937.773 46.5075 937.573 46.5918 937.336 46.5918ZM937.336 41.2393C937.099 41.2393 936.898 41.1549 936.734 40.9863C936.566 40.8223 936.481 40.6217 936.481 40.3848C936.481 40.1523 936.566 39.9541 936.734 39.79C936.903 39.6214 937.104 39.5371 937.336 39.5371C937.573 39.5371 937.773 39.6214 937.938 39.79C938.106 39.9541 938.19 40.1523 938.19 40.3848C938.19 40.6217 938.106 40.8223 937.938 40.9863C937.773 41.1549 937.573 41.2393 937.336 41.2393ZM939.927 40.9795C939.927 40.1182 940.237 39.4004 940.856 38.8262C941.476 38.2565 942.251 37.9717 943.181 37.9717C944.06 37.9717 944.805 38.2337 945.416 38.7578C946.027 39.2819 946.332 39.9222 946.332 40.6787C946.332 41.2256 946.179 41.7542 945.874 42.2646C945.578 42.766 945.015 43.445 944.186 44.3018L941.69 46.8789V46.9062H946.496V48H939.988V47.1523L943.461 43.4951C944.122 42.7979 944.562 42.2692 944.78 41.9092C944.994 41.5492 945.102 41.1641 945.102 40.7539C945.102 40.2799 944.912 39.8766 944.534 39.5439C944.151 39.2113 943.689 39.0449 943.146 39.0449C942.568 39.0449 942.085 39.2295 941.697 39.5986C941.31 39.9678 941.116 40.4281 941.116 40.9795V40.9863H939.927V40.9795ZM952.266 45.9492H947.31V44.835C948.093 43.3812 949.536 41.1481 951.637 38.1357H953.455V44.8691H954.85V45.9492H953.455V48H952.266V45.9492ZM948.526 44.8691H952.266V39.1611H952.245C950.518 41.6266 949.278 43.5202 948.526 44.8418V44.8691Z" fill="black"/>
<path d="M960 50.2559L963.028 38.1289H963.821L960.772 50.2559H960Z" fill="black"/>
<path d="M973.482 45.9492H968.526V44.835C969.31 43.3812 970.753 41.1481 972.854 38.1357H974.672V44.8691H976.066V45.9492H974.672V48H973.482V45.9492ZM969.743 44.8691H973.482V39.1611H973.462C971.735 41.6266 970.495 43.5202 969.743 44.8418V44.8691ZM978.322 46.5918C978.085 46.5918 977.885 46.5075 977.721 46.3389C977.552 46.1748 977.468 45.9743 977.468 45.7373C977.468 45.5049 977.552 45.3066 977.721 45.1426C977.889 44.974 978.09 44.8896 978.322 44.8896C978.559 44.8896 978.76 44.974 978.924 45.1426C979.092 45.3066 979.177 45.5049 979.177 45.7373C979.177 45.9743 979.092 46.1748 978.924 46.3389C978.76 46.5075 978.559 46.5918 978.322 46.5918ZM978.322 41.2393C978.085 41.2393 977.885 41.1549 977.721 40.9863C977.552 40.8223 977.468 40.6217 977.468 40.3848C977.468 40.1523 977.552 39.9541 977.721 39.79C977.889 39.6214 978.09 39.5371 978.322 39.5371C978.559 39.5371 978.76 39.6214 978.924 39.79C979.092 39.9541 979.177 40.1523 979.177 40.3848C979.177 40.6217 979.092 40.8223 978.924 40.9863C978.76 41.1549 978.559 41.2393 978.322 41.2393ZM982.984 42.4082H984.167C984.732 42.4082 985.195 42.2441 985.555 41.916C985.915 41.5924 986.095 41.18 986.095 40.6787C986.095 40.1774 985.933 39.7809 985.609 39.4893C985.268 39.1885 984.791 39.0381 984.181 39.0381C983.616 39.0381 983.155 39.1885 982.8 39.4893C982.444 39.79 982.239 40.2002 982.185 40.7197H981.002C981.07 39.8812 981.394 39.2135 981.973 38.7168C982.556 38.2201 983.31 37.9717 984.235 37.9717C985.124 37.9717 985.86 38.2109 986.443 38.6895C987.036 39.168 987.332 39.7764 987.332 40.5146C987.332 41.1299 987.15 41.6471 986.785 42.0664C986.421 42.4857 985.928 42.75 985.309 42.8594V42.8867C986.056 42.9323 986.651 43.1693 987.093 43.5977C987.535 44.0306 987.756 44.5934 987.756 45.2861C987.756 46.1247 987.419 46.8151 986.744 47.3574C986.079 47.8952 985.256 48.1641 984.276 48.1641C983.256 48.1641 982.431 47.9066 981.802 47.3916C981.182 46.8857 980.849 46.2181 980.804 45.3887H981.986C982.041 45.9036 982.269 46.3138 982.67 46.6191C983.08 46.9382 983.611 47.0977 984.263 47.0977C984.914 47.0977 985.452 46.9313 985.876 46.5986C986.295 46.266 986.505 45.8421 986.505 45.3271C986.505 44.7484 986.3 44.2904 985.89 43.9531C985.484 43.6159 984.928 43.4473 984.222 43.4473H982.984V42.4082ZM991.775 39.4414H991.748L989.137 41.3213V40.0225L991.762 38.1357H992.965V48H991.775V39.4414Z" fill="black"/>
<rect x="424" y="42" width="487" height="6" rx="3" fill="#1E5A32"/>
<g clip-path="url(#clip0_13_704)">
<path d="M230 39H242V51H230V39Z" fill="black"/>
</g>
<g clip-path="url(#clip1_13_704)">
<path d="M274 51V39L265.5 45L274 51ZM274.5 45L283 51V39L274.5 45Z" fill="black"/>
</g>
<g clip-path="url(#clip2_13_704)">
<path d="M310 38V52L321 45L310 38Z" fill="black"/>
</g>
<g clip-path="url(#clip3_13_704)">
<path d="M345 51L353.5 45L345 39V51ZM354 39V51L362.5 45L354 39Z" fill="black"/>
</g>
<g clip-path="url(#clip4_13_704)">
<path d="M396.5 36C394.76 36 393.09 36.81 392 38.09C390.91 36.81 389.24 36 387.5 36C384.42 36 382 38.42 382 41.5C382 45.28 385.4 48.36 390.55 53.04L392 54.35L393.45 53.03C398.6 48.36 402 45.28 402 41.5C402 38.42 399.58 36 396.5 36ZM392.1 51.55L392 51.65L391.9 51.55C387.14 47.24 384 44.39 384 41.5C384 39.5 385.5 38 387.5 38C389.04 38 390.54 38.99 391.07 40.36H392.94C393.46 38.99 394.96 38 396.5 38C398.5 38 400 39.5 400 41.5C400 44.39 396.86 47.24 392.1 51.55Z" fill="black"/>
</g>
<path d="M1024 44.5L1170 37V53L1024 46.5V44.5Z" fill="#757575"/>
<g filter="url(#filter1_d_13_704)">
<rect x="458" y="33" width="12" height="24" rx="6" fill="white"/>
</g>
<g filter="url(#filter2_d_13_704)">
<rect x="1024" y="33" width="12" height="24" rx="6" fill="white"/>
</g>
<g clip-path="url(#clip5_13_704)">
<path d="M1196.5 45C1196.5 43.23 1195.48 41.71 1194 40.97V43.18L1196.45 45.63C1196.48 45.43 1196.5 45.22 1196.5 45ZM1199 45C1199 45.94 1198.8 46.82 1198.46 47.64L1199.97 49.15C1200.63 47.91 1201 46.5 1201 45C1201 40.72 1198.01 37.14 1194 36.23V38.29C1196.89 39.15 1199 41.83 1199 45ZM1184.27 36L1183 37.27L1187.73 42H1183V48H1187L1192 53V46.27L1196.25 50.52C1195.58 51.04 1194.83 51.45 1194 51.7V53.76C1195.38 53.45 1196.63 52.81 1197.69 51.95L1199.73 54L1201 52.73L1192 43.73L1184.27 36ZM1192 37L1189.91 39.09L1192 41.18V37Z" fill="black"/>
</g>
<defs>
<filter id="filter0_b_13_704" x="-12" y="-12" width="1252" height="114" filterUnits="userSpaceOnUse" color-interpolation-filters="sRGB">
<feFlood flood-opacity="0" result="BackgroundImageFix"/>
<feGaussianBlur in="BackgroundImageFix" stdDeviation="6"/>
<feComposite in2="SourceAlpha" operator="in" result="effect1_backgroundBlur_13_704"/>
<feBlend mode="normal" in="SourceGraphic" in2="effect1_backgroundBlur_13_704" result="shape"/>
</filter>
<filter id="filter1_d_13_704" x="456" y="31" width="16" height="28" filterUnits="userSpaceOnUse" color-interpolation-filters="sRGB">
<feFlood flood-opacity="0" result="BackgroundImageFix"/>
<feColorMatrix in="SourceAlpha" type="matrix" values="0 0 0 0 0 0 0 0 0 0 0 0 0 0 0 0 0 0 127 0" result="hardAlpha"/>
<feOffset/>
<feGaussianBlur stdDeviation="1"/>
<feComposite in2="hardAlpha" operator="out"/>
<feColorMatrix type="matrix" values="0 0 0 0 0 0 0 0 0 0 0 0 0 0 0 0 0 0 0.25 0"/>
<feBlend mode="normal" in2="BackgroundImageFix" result="effect1_dropShadow_13_704"/>
<feBlend mode="normal" in="SourceGraphic" in2="effect1_dropShadow_13_704" result="shape"/>
</filter>
<filter id="filter2_d_13_704" x="1022" y="31" width="16" height="28" filterUnits="userSpaceOnUse" color-interpolation-filters="sRGB">
<feFlood flood-opacity="0" result="BackgroundImageFix"/>
<feColorMatrix in="SourceAlpha" type="matrix" values="0 0 0 0 0 0 0 0 0 0 0 0 0 0 0 0 0 0 127 0" result="hardAlpha"/>
<feOffset/>
<feGaussianBlur stdDeviation="1"/>
<feComposite in2="hardAlpha" operator="out"/>
<feColorMatrix type="matrix" values="0 0 0 0 0 0 0 0 0 0 0 0 0 0 0 0 0 0 0.25 0"/>
<feBlend mode="normal" in2="BackgroundImageFix" result="effect1_dropShadow_13_704"/>
<feBlend mode="normal" in="SourceGraphic" in2="effect1_dropShadow_13_704" result="shape"/>
</filter>
<clipPath id="clip0_13_704">
<rect width="24" height="24" fill="white" transform="translate(224 33)"/>
</clipPath>
<clipPath id="clip1_13_704">
<rect width="24" height="24" fill="white" transform="translate(263 33)"/>
</clipPath>
<clipPath id="clip2_13_704">
<rect width="24" height="24" fill="white" transform="translate(302 33)"/>
</clipPath>
<clipPath id="clip3_13_704">
<rect width="24" height="24" fill="white" transform="translate(341 33)"/>
</clipPath>
<clipPath id="clip4_13_704">
<rect width="24" height="24" fill="white" transform="translate(380 33)"/>
</clipPath>
<clipPath id="clip5_13_704">
<rect width="24" height="24" fill="white" transform="translate(1180 33)"/>
</clipPath>
</defs>
</svg>
